<svg xmlns="http://www.w3.org/2000/svg" version="1.1" xmlns:xlink="http://www.w3.org/1999/xlink" width="512" height="512" x="0" y="0" viewBox="0 0 512 512" style="enable-background:new 0 0 512 512" xml:space="preserve"><g><linearGradient id="a" x1="256" x2="256" y1="476" y2="36" gradientUnits="userSpaceOnUse"><stop stop-opacity="1" stop-color="#009efd" offset="0"></stop><stop stop-opacity="1" stop-color="#dae0dd" offset="1"></stop></linearGradient><path d="M20 476V296C20 163.452 127.452 56 260 56h232c0 44.183-35.817 80-80 80H312m-40 80h60c44.183 0 80-35.817 80-80H292M192 296h60c44.183 0 80-35.817 80-80H212M20 476c0-55.228 44.771-100 100-100h52c44.183 0 80-35.817 80-80H132" style="fill:none;stroke:url(#a);stroke-width:40;stroke-miterlimit:10;" fill="none" stroke-width="40" stroke-miterlimit="10"></path></g></svg>